<svg width="34" height="35" viewBox="0 0 34 35" fill="none" xmlns="http://www.w3.org/2000/svg">
<g clip-path="url(#clip0_2454_3708)">
<path d="M32.1111 0.5H1.88889C0.845684 0.5 0 1.34568 0 2.38889V32.6111C0 33.6543 0.845684 34.5 1.88889 34.5H32.1111C33.1543 34.5 34 33.6543 34 32.6111V2.38889C34 1.34568 33.1543 0.5 32.1111 0.5Z" fill="#117EB8"/>
<path fill-rule="evenodd" clip-rule="evenodd" d="M6.20505 13.6503H10.7492V28.2712H6.20505V13.6503ZM8.47785 6.38231C9.93088 6.38231 11.1114 7.56286 11.1114 9.01589C11.1114 10.4703 9.93088 11.6514 8.47785 11.6514C8.12768 11.658 7.77971 11.5948 7.45427 11.4653C7.12882 11.3359 6.83245 11.1429 6.58246 10.8976C6.33248 10.6523 6.1339 10.3597 5.99835 10.0367C5.86279 9.71378 5.79297 9.36707 5.79297 9.01684C5.79297 8.6666 5.86279 8.31989 5.99835 7.99695C6.1339 7.67402 6.33248 7.38135 6.58246 7.13606C6.83245 6.89076 7.12882 6.69776 7.45427 6.56834C7.77971 6.43892 8.12768 6.37568 8.47785 6.38231ZM13.5996 13.6498H17.9582V15.6478H18.0186C18.6254 14.4984 20.1077 13.2867 22.3182 13.2867C26.9195 13.2867 27.7695 16.315 27.7695 20.2519V28.2712H23.2282V21.161C23.2282 19.4657 23.197 17.2845 20.8671 17.2845C18.5027 17.2845 18.1395 19.1314 18.1395 21.0387V28.2712H13.5991V13.6503L13.5996 13.6498Z" fill="white"/>
</g>
<defs>
<clipPath id="clip0_2454_3708">
<rect width="34" height="34" fill="white" transform="translate(0 0.5)"/>
</clipPath>
</defs>
</svg>
